#!OML:ASF H:\Pregnant\Project 1\Capture day 1\Session 1\femalepreg.ASF
:FULLY-SPECIFIED
:DEGREES
1011
root 8.23991 1.12248 26.5006 115.268 -43.5539 -209.553
lowerback 13.3704 -3.46007 -6.70769
upperback 8.9522 -7.25545 7.45918
thorax 4.00645 -5.15861 12.5477
lowerneck -11.9641 6.36094 -1.13585
upperneck 36.7342 10.9074 -7.21125
head 15.2851 2.38463 -1.36414
rclavicle -5.40694e-014 1.20861e-013
rhumerus -19.08 16.6056 -62.5233
rradius 60.2625
rwrist -0.428292
rhand -12.1284 -4.44955
rfingers 7.12502
rthumb 13.9333 -33.9627
lclavicle -5.40694e-014 1.20861e-013
lhumerus -108.893 -13.2067 130.495
lradius 60.8243
lwrist 80.0703
lhand -61.7187 353.25
lfingers 7.12502
lthumb -33.7865 20.0808
rfemur -65.5167 9.30516 4.18998
rtibia 104.596
rfoot 35.2738 12.0741
rtoes 9.40058
lfemur -40.7667 345.22 338.198
ltibia 91.7508
lfoot 19.0257 -376.215
ltoes -53.3229
1012
root 8.23862 1.11826 26.5031 115.067 -43.5878 -209.638
lowerback 13.3444 -3.53935 -6.81245
upperback 8.86893 -7.37269 7.47408
thorax 3.97857 -5.21929 12.6351
lowerneck -11.9765 6.31819 -1.25947
upperneck 36.7394 10.8773 -7.2196
head 15.2826 2.34681 -1.35297
rclavicle 3.81667e-014 -1.81292e-013
rhumerus -18.3783 16.7874 -62.3982
rradius 59.6257
rwrist -0.625608
rhand -11.868 -4.63419
rfingers 7.12502
rthumb 14.1842 -34.1299
lclavicle 3.81667e-014 -1.81292e-013
lhumerus -109.251 -12.9817 130.761
lradius 61.3948
lwrist 80.4264
lhand -61.7709 352.966
lfingers 7.12502
lthumb -33.836 19.786
rfemur -65.2886 9.30828 4.11719
rtibia 104.594
rfoot 35.227 11.9135
rtoes 9.60559
lfemur -40.4344 345.207 338.028
ltibia 91.6607
lfoot 19.0355 -376.195
ltoes -53.3286
1013
root 8.2373 1.11416 26.5053 114.851 -43.6292 -209.712
lowerback 13.2803 -3.60595 -6.87236
upperback 8.8302 -7.46729 7.465
thorax 4.00387 -5.26973 12.6588
lowerneck -12.074 6.25675 -1.36472
upperneck 36.7323 10.8139 -7.19441
head 15.2902 2.30635 -1.3318
rclavicle -1.46306e-013 1.82882e-013
rhumerus -17.6318 16.8613 -62.2959
rradius 58.9468
rwrist -0.836479
rhand -11.6865 -4.79424
rfingers 7.12502
rthumb 14.3591 -34.2776
lclavicle -1.46306e-013 1.82882e-013
lhumerus -109.605 -12.8719 130.955
lradius 61.9738
lwrist 80.7388
lhand -61.8187 352.739
lfingers 7.12502
lthumb -33.8815 19.549
rfemur -65.0461 9.30621 4.04169
rtibia 104.593
rfoot 35.1837 11.7312
rtoes 9.85413
lfemur -40.0943 345.2 337.851
ltibia 91.5692
lfoot 19.0558 -376.17
ltoes -53.3293
1014
root 8.23607 1.10996 26.507 114.627 -43.68 -209.772
lowerback 13.219 -3.67384 -6.95616
upperback 8.78519 -7.56897 7.47522
thorax 4.02998 -5.32699 12.72
lowerneck -12.1529 6.20268 -1.48746
upperneck 36.6996 10.7669 -7.17428
head 15.2812 2.27248 -1.30666
rclavicle -2.54444e-014 4.45278e-014
rhumerus -16.8615 16.9652 -62.1634
rradius 58.2483
rwrist -1.08831
rhand -11.5661 -4.95263
rfingers 7.12502
rthumb 14.4751 -34.4277
lclavicle -2.54444e-014 4.45278e-014
lhumerus -109.917 -12.7387 131.104
lradius 62.5405
lwrist 80.982
lhand -61.86 352.665
lfingers 7.12502
lthumb -33.9207 19.4668
rfemur -64.8009 9.29526 3.96452
rtibia 104.598
rfoot 35.1321 11.5576
rtoes 10.074
lfemur -39.7585 345.193 337.673
ltibia 91.477
lfoot 19.0856 -376.136
ltoes -53.3325
1015
root 8.23545 1.10572 26.508 114.409 -43.7408 -209.815
lowerback 13.1361 -3.74238 -7.06467
upperback 8.72822 -7.67315 7.50493
thorax 4.06298 -5.38748 12.8164
lowerneck -12.2018 6.15222 -1.62851
upperneck 36.6404 10.7262 -7.15186
head 15.2511 2.24237 -1.27625
rclavicle -9.85972e-014 1.46306e-013
rhumerus -16.1099 17.0514 -62.0104
rradius 57.5675
rwrist -1.33132
rhand -11.4892 -5.1116
rfingers 7.12502
rthumb 14.5492 -34.5814
lclavicle -9.85972e-014 1.46306e-013
lhumerus -110.203 -12.5961 131.219
lradius 63.0896
lwrist 81.1572
lhand -61.9008 352.623
lfingers 7.12502
lthumb -33.9595 19.4154
rfemur -64.5684 9.27021 3.88712
rtibia 104.611
rfoot 35.0642 11.4109
rtoes 10.2048
lfemur -39.4464 345.184 337.503
ltibia 91.3852
lfoot 19.1218 -376.102
ltoes -53.3316
1016
root 8.23545 1.10145 26.5084 114.204 -43.8132 -209.849
lowerback 12.9682 -3.78807 -7.16734
upperback 8.74256 -7.75214 7.5465
thorax 4.21579 -5.44922 12.9059
lowerneck -12.4356 6.07839 -1.82661
upperneck 36.5674 10.6776 -7.09143
head 15.2508 2.20952 -1.21364
rclavicle -1.59028e-014 -2.14687e-013
rhumerus -15.4698 16.7301 -61.869
rradius 57.1184
rwrist -1.32072
rhand -11.3193 -5.2432
rfingers 7.12502
rthumb 14.7129 -34.7011
lclavicle -1.59028e-014 -2.14687e-013
lhumerus -110.396 -12.6099 131.298
lradius 63.6309
lwrist 81.285
lhand -61.9229 352.712
lfingers 7.12502
lthumb -33.9805 19.5001
rfemur -64.3515 9.23675 3.80275
rtibia 104.631
rfoot 34.984 11.2954
rtoes 10.2392
lfemur -39.1557 345.175 337.337
ltibia 91.2916
lfoot 19.1591 -376.067
ltoes -53.325
